<?xml version="1.0" standalone="no"?>
<!DOCTYPE svg PUBLIC "-//W3C//DTD SVG 20010904//EN"
 "http://www.w3.org/TR/2001/REC-SVG-20010904/DTD/svg10.dtd">
<svg version="1.0" xmlns="http://www.w3.org/2000/svg"
 width="261.000000pt" height="261.000000pt" viewBox="0 0 261.000000 261.000000"
 preserveAspectRatio="xMidYMid meet">
<metadata>
Created by potrace 1.14, written by Peter Selinger 2001-2017
</metadata>
<g transform="translate(0.000000,261.000000) scale(0.100000,-0.100000)"
fill="#000000" stroke="none">
<path d="M880 2554 c-390 -47 -708 -141 -775 -230 -24 -31 -26 -41 -20 -82 9
-59 26 -93 65 -126 31 -25 31 -27 32 -118 0 -51 -5 -140 -11 -198 -7 -58 -14
-123 -17 -145 -5 -46 -32 -264 -39 -315 -3 -19 -16 -129 -30 -245 -14 -116
-27 -226 -30 -245 -21 -173 -25 -292 -11 -340 6 -19 27 -51 48 -72 43 -43 106
-58 168 -39 92 27 129 93 135 238 13 306 28 461 47 479 7 6 63 21 123 34 502
101 877 274 1104 510 58 60 130 180 153 254 31 99 31 238 -1 319 -59 150 -207
259 -424 313 -87 21 -371 26 -517 8z m456 -297 c59 -20 115 -60 141 -102 28
-46 25 -166 -6 -225 -76 -145 -348 -312 -658 -405 -173 -52 -327 -85 -335 -72
-4 6 -5 14 -3 17 2 3 13 91 24 195 12 105 23 204 25 220 3 17 8 62 12 100 4
39 9 73 10 78 1 4 2 27 3 51 0 25 7 51 15 59 19 18 184 64 318 87 133 24 377
22 454 -3z"/>
<path d="M2372 2365 c-52 -16 -107 -57 -126 -93 -9 -18 -16 -88 -20 -212 -4
-102 -9 -198 -11 -215 -2 -16 -6 -65 -9 -107 -17 -212 -69 -544 -111 -708 -34
-131 -87 -284 -105 -300 -3 -3 -16 -21 -28 -42 -29 -46 -95 -106 -138 -124
-18 -8 -60 -14 -93 -14 -119 0 -241 66 -402 217 -44 41 -96 81 -114 89 -99 41
-230 -14 -255 -106 -23 -85 43 -189 193 -304 205 -157 406 -230 607 -221 339
15 548 243 680 738 29 112 73 348 85 462 4 33 8 67 10 75 2 8 7 43 10 77 4 35
8 75 10 90 2 16 7 66 11 113 3 47 8 88 10 92 2 3 7 91 10 195 8 214 3 233 -64
278 -46 30 -94 37 -150 20z"/>
</g>
</svg>
