<svg xmlns="http://www.w3.org/2000/svg" width="300" height="259" viewBox="0 0 220 190">
  <path d="M110,90 L140,90 A30,30 0 0,1 85,107 Z"  fill="rgba(40,167,69,0.25)"/>
  <path d="M110,90 L80,90 A30,30 0 0,1 135,73 Z"   fill="rgba(40,167,69,0.25)"/>
  <path d="M110,90 L135,73 A30,30 0 0,1 140,90 Z"  fill="rgba(220,53,69,0.3)"/>
  <path d="M110,90 L85,107 A30,30 0 0,1 80,90 Z"   fill="rgba(220,53,69,0.3)"/>
  <line x1="30"  y1="90" x2="190" y2="90"  stroke="#3b5bdb" stroke-width="2.5" stroke-linecap="round"/>
  <line x1="36"  y1="142" x2="184" y2="38" stroke="#3b5bdb" stroke-width="2.5" stroke-linecap="round"/>
  <text x="140" y="84"  font-size="15" fill="#c92a2a" font-weight="bold" font-family="serif">&#945;</text>
  <text x="72"  y="103" font-size="15" fill="#c92a2a" font-weight="bold" font-family="serif">&#945;</text>
  <text x="120" y="130" font-size="15" fill="#2f9e44" font-weight="bold" font-family="serif">&#946;</text>
  <text x="94"  y="59"  font-size="15" fill="#2f9e44" font-weight="bold" font-family="serif">&#946;</text>
</svg>
