<svg xmlns="http://www.w3.org/2000/svg" width="400" height="273" viewBox="0 0 300 205">
  <line x1="20"  y1="65"  x2="262" y2="65"  stroke="#7048e8" stroke-width="2.5"/>
  <line x1="20"  y1="148" x2="262" y2="148" stroke="#7048e8" stroke-width="2.5"/>
  <line x1="85"  y1="15"  x2="195" y2="188" stroke="#e67700" stroke-width="2.5"/>
  <path d="M117,65 L135,65 A18,18 0 0,1 127,80 Z" fill="rgba(220,53,69,0.3)"/>
  <path d="M117,65 L127,80 A18,18 0 0,1 99,65 Z"  fill="rgba(40,167,69,0.3)"/>
  <path d="M117,65 L99,65 A18,18 0 0,1 107,50 Z"  fill="rgba(220,53,69,0.3)"/>
  <path d="M117,65 L107,50 A18,18 0 0,1 135,65 Z" fill="rgba(40,167,69,0.3)"/>
  <path d="M170,148 L188,148 A18,18 0 0,1 180,163 Z" fill="rgba(220,53,69,0.3)"/>
  <path d="M170,148 L180,163 A18,18 0 0,1 152,148 Z" fill="rgba(40,167,69,0.3)"/>
  <path d="M170,148 L152,148 A18,18 0 0,1 160,133 Z" fill="rgba(220,53,69,0.3)"/>
  <path d="M170,148 L160,133 A18,18 0 0,1 188,148 Z" fill="rgba(40,167,69,0.3)"/>
  <text x="136" y="79"  font-size="11" fill="#c92a2a" font-weight="bold" font-family="serif">&#945;</text>
  <text x="100" y="88"  font-size="11" fill="#2f9e44" font-weight="bold" font-family="serif">&#946;</text>
  <text x="92"  y="54"  font-size="11" fill="#c92a2a" font-weight="bold" font-family="serif">&#945;</text>
  <text x="127" y="43"  font-size="11" fill="#2f9e44" font-weight="bold" font-family="serif">&#946;</text>
  <text x="189" y="162" font-size="11" fill="#c92a2a" font-weight="bold" font-family="serif">&#945;</text>
  <text x="153" y="171" font-size="11" fill="#2f9e44" font-weight="bold" font-family="serif">&#946;</text>
  <text x="145" y="137" font-size="11" fill="#c92a2a" font-weight="bold" font-family="serif">&#945;</text>
  <text x="180" y="126" font-size="11" fill="#2f9e44" font-weight="bold" font-family="serif">&#946;</text>
  <text x="246" y="61"  font-size="13" fill="#555" font-style="italic">r</text>
  <text x="246" y="144" font-size="13" fill="#555" font-style="italic">s</text>
  <text x="230" y="186" font-size="11" fill="#888">r &#8741; s</text>
</svg>
